<?xml version="1.0" encoding="UTF-8" standalone="no"?>
<svg
   xmlns:svg="http://www.w3.org/2000/svg"
   xmlns="http://www.w3.org/2000/svg"
   xmlns:xlink="http://www.w3.org/1999/xlink"
   version="1.1"
   height="40"
   width="119"
   fill="#003764"
   id="svg2">
  <path
     d="m 46.1239,0.9458 v 0.697 h 2.991 v 7.88 h 0.817 v -7.88 h 2.991 v -0.697 z"
     id="path4" />
  <path
     d="m 59.6383,0.9458 v 3.724 h -5.093 v -3.724 h -0.816 v 8.577 h 0.816 v -4.156 h 5.093 v 4.156 h 0.816 v -8.577 z"
     id="path6" />
  <path
     d="m 62.1862,0.9458 v 8.577 h 5.981 v -0.697 h -5.165 v -3.387 h 4.781 v -0.697 h -4.781 v -3.099 h 5.105 v -0.697 z"
     id="path8" />
  <path
     d="m 46.1239,30.806 v 8.576 h 0.817 v -4.084 h 4.108 v -0.697 h -4.108 v -3.098 h 4.624 v -0.697 z"
     id="path10" />
  <path
     d="m 56.1665,38.8657 c 2.258,0 3.219,-1.898 3.219,-3.772 0,-1.873 -0.961,-3.771 -3.219,-3.771 -2.27,0 -3.231,1.898 -3.231,3.771 0,1.874 0.961,3.772 3.231,3.772 m 0,-8.24 c 2.691,0 4.036,2.114 4.036,4.468 0,2.355 -1.345,4.469 -4.036,4.469 -2.703,0 -4.048,-2.114 -4.048,-4.469 0,-2.354 1.345,-4.468 4.048,-4.468"
     id="path12" />
  <path
     d="m 61.3932,30.8058 h 0.817 v 5.309 c 0,1.982 0.924,2.751 2.51,2.751 1.598,0 2.522,-0.769 2.522,-2.751 v -5.309 h 0.817 v 5.489 c 0,1.766 -0.949,3.268 -3.339,3.268 -2.366,0 -3.327,-1.502 -3.327,-3.268 z"
     id="path14" />
  <path
     d="m 69.6943,30.8058 h 0.913 l 4.997,7.255 h 0.024 v -7.255 h 0.816 v 8.576 h -0.912 l -4.997,-7.255 h -0.024 v 7.255 h -0.817 z"
     id="path16" />
  <path
     d="m 78.9805,38.6854 h 1.742 c 2.462,0 3.531,-1.021 3.531,-3.592 0,-2.57 -1.069,-3.591 -3.531,-3.591 h -1.742 z m -0.817,-7.88 h 2.967 c 2.595,0.06 3.94,1.454 3.94,4.288 0,2.835 -1.345,4.228 -3.94,4.288 h -2.967 z"
     id="path18" />
  <path
     d="m 87.6063,36.0189 h 3.375 l -1.658,-4.396 z m 1.297,-5.213 h 0.913 l 3.363,8.576 h -0.876 l -1.045,-2.666 h -3.904 l -1.033,2.666 h -0.877 z"
     id="path20" />
  <use
     xlink:href="#path4"
     transform="translate(46.096,29.8595)"
     id="use22" />
  <path
     d="m 99.884,30.806 h 0.817 v 8.576 h -0.817 z"
     id="path24" />
  <use
     xlink:href="#path12"
     transform="translate(49.9157)"
     id="use26" />
  <use
     xlink:href="#path16"
     transform="translate(41.6867)"
     id="use28" />
  <path
     d="m 46.1242,12.0766 h 4.728 v 11.412 h 6.791 v 3.933 h -11.519 z"
     id="path30" />
  <path
     d="m 60.737,12.077 h 4.728 v 15.345 h -4.728 z"
     id="path32" />
  <path
     d="m 68.9891,12.0766 h 4.835 l 4.47,8.21 h 0.044 v -8.21 h 4.47 v 15.345 h -4.599 l -4.707,-8.382 h -0.043 v 8.382 h -4.47 z"
     id="path34" />
  <path
     d="m 100.2782,21.4897 c 0,4.277 -2.256,6.297 -6.985,6.297 -4.727,0 -7.006,-2.02 -7.006,-6.297 v -9.413 h 4.729 v 8.36 c 0,1.547 -0.022,3.524 2.299,3.524 2.235,0 2.235,-1.977 2.235,-3.524 v -8.36 h 4.728 z"
     id="path36" />
  <path
     d="m 107.7989,19.2547 -5.051,-7.178 h 5.545 l 2.321,4.169 2.278,-4.169 h 5.244 l -4.921,7.221 5.48,8.124 h -5.696 l -2.621,-4.578 -2.708,4.578 h -5.416 z"
     id="path38" />
  <path
     d="m 8.5827,31.6667 v -15.427 h -7.729 v 23.142 h 23.152 v -7.715 z"
     fill="#0096d6"
     id="path40" />
  <path
     d="M 39.4285,0.8 H 0.8595 v 11.574 h 7.712 V 8.549 h 23.145 v 23.118 h -3.852 v 7.715 h 11.564 z"
     id="path42" />
</svg>
