<!--
SPDX-License-Identifier: CC-BY-4.0
Copyright Contributors to the ODPi Egeria project.
-->
<svg id="Layer_1" data-name="Layer 1" xmlns="http://www.w3.org/2000/svg" viewBox="0 0 400 26.37204"><defs><style>.cls-1{fill:#fff;}</style></defs><title>lf-projects</title><path class="cls-1" d="M22.89609,2.88894H35.99078V4.23088H30.22956v15.177h-1.5728V4.23088H22.89609Z"/><path class="cls-1" d="M37.54305,2.88894h1.5728v7.17225h9.80978V2.88894h1.5728V19.40783h-1.5728v-8.005H39.11585v8.005h-1.5728Z"/><path class="cls-1" d="M53.83274,2.88894H65.23863V4.23088H55.4061v5.96905h9.20818v1.34194H55.4061v6.524h9.94852v1.34193H53.83274Z"/><polygon class="cls-1" points="5.418 16.11 5.418 9.502 2.107 9.502 2.107 19.415 12.024 19.415 12.024 16.11 5.418 16.11"/><polygon class="cls-1" points="18.63 2.889 2.11 2.889 2.11 7.846 5.413 7.846 5.413 6.208 15.327 6.208 15.327 16.11 13.677 16.11 13.677 19.415 18.63 19.415 18.63 2.889"/><path class="cls-1" d="M152.61814,2.89234h10.48019V4.23428h-8.90739v5.969h7.91231v1.34194h-7.91231v7.866h-1.5728Z"/><path class="cls-1" d="M171.96075,2.54548c5.18238,0,7.77357,4.07187,7.77357,8.60631,0,4.53472-2.59119,8.60658-7.77357,8.60658-5.20568,0-7.79687-4.07186-7.79687-8.60658C164.16388,6.61735,166.75507,2.54548,171.96075,2.54548Zm0,15.871c4.34936,0,6.20021-3.65536,6.20021-7.26465,0-3.609-1.85085-7.26465-6.20021-7.26465-4.37266,0-6.22351,3.65563-6.22351,7.26465C165.73724,14.76108,167.58809,18.41644,171.96075,18.41644Z"/><path class="cls-1" d="M182.028,2.89234h1.5728v10.226c0,3.81741,1.78148,5.29809,4.83552,5.29809,3.07735,0,4.85827-1.48068,4.85827-5.29809V2.89234H194.868V13.46549c0,3.4009-1.82754,6.29288-6.43163,6.29288-4.55747,0-6.40832-2.892-6.40832-6.29288Z"/><path class="cls-1" d="M198.01693,2.89234h1.75817l9.62441,13.974h.04606V2.89234h1.57336V19.41123h-1.75817l-9.62441-13.974h-.04606v13.974h-1.57336Z"/><path class="cls-1" d="M214.33048,2.89234h5.714c4.99757.11571,7.58876,2.79958,7.58876,8.25945,0,5.46014-2.59119,8.14373-7.58876,8.25944h-5.714Zm1.5728,15.177h3.35484c4.74283,0,6.8018-1.96656,6.8018-6.91751s-2.059-6.91751-6.8018-6.91751h-3.35484Z"/><path class="cls-1" d="M235.01614,2.89234h1.75817l6.47824,16.51889h-1.68879l-2.0129-5.136H232.032l-1.99015,5.136h-1.6888Zm-2.49851,10.04092h6.501L235.82585,4.4657Z"/><path class="cls-1" d="M241.40393,2.89234h13.09468V4.23428H248.738v15.177h-1.57336V4.23428h-5.76066Z"/><path class="cls-1" d="M256.16632,2.89234h1.57336V19.41123h-1.57336Z"/><path class="cls-1" d="M268.10443,2.54548c5.18237,0,7.77356,4.07187,7.77356,8.60631,0,4.53472-2.59119,8.60658-7.77356,8.60658-5.20569,0-7.79688-4.07186-7.79688-8.60658C260.30755,6.61735,262.89874,2.54548,268.10443,2.54548Zm0,15.871c4.34935,0,6.2002-3.65536,6.2002-7.26465,0-3.609-1.85085-7.26465-6.2002-7.26465-4.37267,0-6.22352,3.65563-6.22352,7.26465C261.88091,14.76108,263.73176,18.41644,268.10443,18.41644Z"/><path class="cls-1" d="M278.31046,2.89234h1.75816l9.62442,13.974h.04606V2.89234h1.57336V19.41123h-1.75817l-9.62441-13.974h-.04606v13.974h-1.57336Z"/><path class="cls-1" d="M69.71189,2.88894h5.06787V15.12062h7.27909v4.21546h-12.347Z"/><path class="cls-1" d="M85.37441,2.88894h5.06787V19.33608H85.37441Z"/><path class="cls-1" d="M94.2196,2.88894h5.18267l4.79139,8.79942h.04624V2.88894H109.031V19.33608H104.1015l-5.04459-8.98373h-.04624v8.98373H94.2196Z"/><path class="cls-1" d="M127.7568,12.97844c0,4.584-2.4185,6.74924-7.48637,6.74924-5.06755,0-7.50933-2.16529-7.50933-6.74924V2.88894h5.06756v8.96077c0,1.65842-.023,3.77779,2.46473,3.77779,2.39585,0,2.39585-2.11937,2.39585-3.77779V2.88894h5.06756Z"/><path class="cls-1" d="M135.81783,10.58275,130.4046,2.88894h5.94292l2.48769,4.46883L141.277,2.88894h5.62051l-5.27483,7.73989,5.87372,8.70725h-6.10428l-2.8101-4.90651-2.90258,4.90651H129.8746Z"/><path class="cls-1" d="M296.88889,3.10.1466h4.54221A6.03948,6.03948,0,0,1,305.42428,4.272a3.94722,3.94722,0,0,1,1.38627,3.1855,4.02722,4.02722,0,0,1-1.39794,3.23292,6.16936,6.16936,0,0,1-4.09971,1.19146h-3.14974v7.70327h-1.27427Zm1.27427,1.06159V10.8196h3.0673a4.87577,4.87577,0,0,0,3.13807-.87262,2.99932,2.99932,0,0,0,1.07363-2.46609,3.01682,3.01682,0,0,0-1.04992-2.41795,4.50612,4.50612,0,0,0-3.00856-.89669Z"/><path class="cls-1" d="M309.22922,3.10.1466h4.22337a6.26276,6.26276,0,0,1,4.05848,1.14987,3.80969,3.80969,0,0,1,1.40378,3.10.1889q0,2.85534-3.13807,4.01069a7.4087,7.4087,0,0,1,2.19431,2.51279l3.728,5.69829H320.191l-2.871-4.517a11.037,11.037,0,0,0-2.24064-2.82653,4.08874,4.08874,0,0,0-2.34717-.56034h-2.229v7.90391h-1.27391Zm1.27391,1.06159v6.45344h2.73714a5.17668,5.17668,0,0,0,3.19134-.84417,2.8308,2.8308,0,0,0,1.10281-2.38875,2.80607,2.80607,0,0,0-1.12069-2.37125,5.25447,5.25447,0,0,0-3.22052-.84927Z"/><path class="cls-1" d="M330.25561,2.89234a8.58057,8.58057,0,0,1,6.19953,2.45953,8.02913,8.02913,0,0,1,2.54235,5.99889,8.01741,8.01741,0,0,1-2.54235,5.98722,9.01321,9.01321,0,0,1-12.37535,0,8.03487,8.03487,0,0,1-2.53067-5.98722,8.04665,8.04665,0,0,1,2.53067-5.99889A8.52517,8.52517,0,0,1,330.25561,2.89234Zm.04743,15.72538a7.08592,7.08592,0,0,0,5.19667-2.10567,6.99934,6.99934,0,0,0,2.11771-5.16129,7.01274,7.01274,0,0,0-2.11771-5.173A7.08592,7.08592,0,0,0,330.303,4.07213a7.17954,7.17954,0,0,0-5.23243,2.10567,6.97224,6.97224,0,0,0-2.14106,5.173,6.959,6.959,0,0,0,2.14106,5.16129A7.17954,7.17954,0,0,0,330.303,18.61772Z"/><path class="cls-1" d="M343.46856,3.10.1466V19.58519q0,2.72511-1.0262,3.76335a3.30246,3.30246,0,0,1-2.43035,1.03824,7.45893,7.45893,0,0,1-.76682-.04669l-.11783-1.20387a3.31507,3.31507,0,0,0,.75515.09485q2.312,0,2.31215-3.30369V3.10.1466Z"/><path class="cls-1" d="M356.16312,3.10.1466V4.16625h-7.71567v6.595h7.515V11.8345h-7.515v6.6891h7.90428v1.06159h-9.17819V3.10.1466Z"/><path class="cls-1" d="M373.19779,4.272V5.66415a12.468,12.468,0,0,0-5.87522-1.592,6.92509,6.92509,0,0,0-5.13174,2.08815,7.11582,7.11582,0,0,0-2.06444,5.21383,6.98279,6.98279,0,0,0,2.07612,5.20288,7.24055,7.24055,0,0,0,5.297,2.04073,12.62352,12.62352,0,0,0,5.86354-1.68687v1.32133a12.41156,12.41156,0,0,1-5.83983,1.54533,8.6842,8.6842,0,0,1-6.27031-2.41211,8.00176,8.00176,0,0,1-2.50695-6.01129A8.0045,8.0045,0,0,1,361.30581,5.322,8.5551,8.5551,0,0,1,367.405,2.89234,13.87244,13.87244,0,0,1,373.19779,4.272Z"/><path class="cls-1" d="M388.14467,3.10.1466V4.16625h-6.182V19.58519h-1.28594V4.16625h-6.18166V3.10.1466Z"/><path class="cls-1" d="M397.91275,3.93058V5.33436a7.6208,7.6208,0,0,0-3.69258-1.26223,3.56376,3.56376,0,0,0-2.48324.9018,2.89642,2.89642,0,0,0-.997,2.23627,2.75161,2.75161,0,0,0,.58989,1.72189,5.69239,5.69239,0,0,0,2.46574,1.47455,23.38739,23.38739,0,0,1,2.73714,1.17979,4.18635,4.18635,0,0,1,1.46288,1.36875,4.09559,4.09559,0,0,1,.60157,2.32382,4.234,4.234,0,0,1-1.39211,3.20885,4.774,4.774,0,0,1-3.39744,1.30966,7.65256,7.65256,0,0,1-4.22374-1.4388V16.86008a7.45054,7.45054,0,0,0,4.153,1.75764,3.46865,3.46865,0,0,0,2.47121-.94923,3.18985,3.18985,0,0,0,.38341-4.22447,5.70471,5.70471,0,0,0-2.53541-1.57669,24.87464,24.87464,0,0,1-2.73058-1.182,4.02036,4.02036,0,0,1-1.3932-1.279,3.69383,3.69383,0,0,1-.57238-2.14,4.05158,4.05158,0,0,1,1.3921-3.095,4.77587,4.77587,0,0,1,3.35039-1.279A7.83016,7.83016,0,0,1,397.91275,3.93058Z"/></svg>
