<?xml version="1.0" encoding="utf-8"?>
<!-- Generator: Adobe Illustrator 23.0.3, SVG Export Plug-In . SVG Version: 6.00 Build 0)  -->
<svg version="1.1" id="Layer_1" xmlns="http://www.w3.org/2000/svg" xmlns:xlink="http://www.w3.org/1999/xlink" x="0px" y="0px"
	 viewBox="0 0 200 200.01" style="enable-background:new 0 0 200 200.01;" xml:space="preserve">
<style type="text/css">
	.st0{fill:#B3B3B3;}
	.st1{fill:#70CDDC;}
	.st2{fill:#2F79AD;}
	.st3{fill:#F37F86;}
	.st4{fill:#FACE41;}
	.st5{fill:#5BABDF;}
	.st6{fill:#AE99C9;}
	.st7{fill:none;stroke:#B3B3B3;stroke-width:0;stroke-linecap:round;stroke-linejoin:round;}
	.st8{fill:#F89C5F;}
	.st9{fill:#B9D86E;}
	.st10{fill:#FFFFFF;}
	.st11{fill:none;stroke:#B3B3B3;stroke-width:8.64;stroke-linejoin:round;stroke-miterlimit:10;}
	.st12{fill:#BCBEC0;}
</style>
<path class="st0" d="M123.91,142.9h18.98c29.6,0,53.62-24.02,53.62-53.62c0-47.4-43.21-85.78-96.51-85.78
	c-53.29,0-96.51,43.21-96.51,96.51c0,53.29,43.21,96.51,96.51,96.51c8.9,0,16.08-7.18,16.08-16.08c0-4.18-1.61-7.94-4.18-10.83
	c-2.47-2.79-4.07-6.54-4.07-10.62C107.83,150.08,115.01,142.9,123.91,142.9z M41.02,100.01c-8.9,0-16.08-7.18-16.08-16.08
	c0-8.9,7.18-16.08,16.08-16.08s16.08,7.18,16.08,16.08C57.11,92.82,49.92,100.01,41.02,100.01z M73.19,57.11
	c-8.9,0-16.08-7.18-16.08-16.08c0-8.9,7.18-16.08,16.08-16.08c8.9,0,16.08,7.18,16.08,16.08C89.28,49.93,82.09,57.11,73.19,57.11z
	 M158.98,67.84c8.9,0,16.08,7.18,16.08,16.08c0,8.9-7.18,16.08-16.08,16.08c-8.9,0-16.08-7.18-16.08-16.08
	C142.89,75.02,150.08,67.84,158.98,67.84z M126.81,24.94c8.9,0,16.08,7.18,16.08,16.08c0,8.9-7.18,16.08-16.08,16.08
	s-16.08-7.18-16.08-16.08C110.72,32.13,117.91,24.94,126.81,24.94z"/>
</svg>
