<?xml version="1.0" encoding="utf-8"?>
<!-- Generator: Adobe Illustrator 23.0.3, SVG Export Plug-In . SVG Version: 6.00 Build 0)  -->
<svg version="1.1" id="Layer_1" xmlns="http://www.w3.org/2000/svg" xmlns:xlink="http://www.w3.org/1999/xlink" x="0px" y="0px"
	 viewBox="0 0 240.94 200.13" style="enable-background:new 0 0 240.94 200.13;" xml:space="preserve">
<style type="text/css">
	.st0{fill:#B3B3B3;}
	.st1{fill:#70CDDC;}
	.st2{fill:#2F79AD;}
	.st3{fill:#F37F86;}
	.st4{fill:#FACE41;}
	.st5{fill:#5BABDF;}
	.st6{fill:#AE99C9;}
	.st7{fill:none;stroke:#B3B3B3;stroke-width:0;stroke-linecap:round;stroke-linejoin:round;}
	.st8{fill:#F89C5F;}
	.st9{fill:#B9D86E;}
	.st10{fill:#FFFFFF;}
	.st11{fill:none;stroke:#B3B3B3;stroke-width:8.64;stroke-linejoin:round;stroke-miterlimit:10;}
	.st12{fill:#BCBEC0;}
</style>
<path class="st10" d="M86.27,78.95c0.16,0,0.32-0.01,0.49-0.01c0.01,0,0.02,0,0.03,0c3.77-4.11,8.29-7.36,13.28-9.63v-4.46H41.29
	v20.31l27.66-16.6L86.27,78.95z"/>
<path class="st0" d="M177.83,0.06h-77.77v64.8h94.71v125.58H41.29V85.16l-3.45,2.07V0.06H22.3c-12.28,0-22.23,9.95-22.23,22.23
	v155.53c0,12.28,9.95,22.23,22.23,22.23h155.53c12.28,0,22.23-9.95,22.23-22.23V22.29C200.06,10.01,190.11,0.06,177.83,0.06z"/>
<path class="st0" d="M194.78,190.43V64.85h-94.71v4.46c-4.99,2.26-9.52,5.52-13.28,9.63c-0.01,0-0.02,0-0.03,0
	c-0.16,0-0.32,0.01-0.49,0.01L68.95,68.56l-27.66,16.6v105.27H194.78z M66.17,182.52c-2.99,0-5.41-2.42-5.41-5.41
	c0-2.99,2.42-5.41,5.41-5.41c2.99,0,5.41,2.42,5.41,5.41C71.57,180.1,69.15,182.52,66.17,182.52z M84.02,174.49
	c-4.65,0-8.42-3.77-8.42-8.42s3.77-8.42,8.42-8.42s8.42,3.77,8.42,8.42S88.66,174.49,84.02,174.49z M86.75,89.74
	c1.67,0,3.32,0.14,4.95,0.4c5.53-8.43,15.06-13.69,25.29-13.69c5.77,0,11.42,1.66,16.24,4.74c5.27-3.11,11.23-4.74,17.44-4.74
	c19,0,34.45,15.47,34.45,34.48c0,19.01-15.45,34.48-34.45,34.48c-2.54,0-5.06-0.28-7.51-0.82c-2.2,3.81-5.21,7.1-8.87,9.67
	c-5.09,3.57-11.08,5.45-17.31,5.45c-8.82,0-17.09-3.82-22.8-10.38c-2.42,0.62-4.91,0.93-7.45,0.93c-16.67,0-30.23-13.57-30.23-30.26
	C56.52,103.32,70.08,89.74,86.75,89.74z"/>
<g>
	<path class="st0" d="M204.49,140.08c-5.36,0-9.72-4.36-9.72-9.72V100.5c0-4.23,2.72-7.84,6.51-9.17c-3.79-1.33-6.51-4.94-6.51-9.17
		V52.29c0-3.88,2.28-7.23,5.58-8.79c-3.29-1.56-5.58-4.91-5.58-8.79V4.85c0-5.36,4.36-9.72,9.72-9.72h29.86
		c5.36,0,9.72,4.36,9.72,9.72v29.86c0,3.88-2.28,7.23-5.58,8.79c3.29,1.56,5.58,4.91,5.58,8.79v29.86c0,4.23-2.72,7.84-6.51,9.17
		c3.79,1.33,6.51,4.94,6.51,9.17v29.86c0,5.36-4.36,9.72-9.72,9.72H204.49z M224.63,120.64v-10.42h-10.42v10.42H224.63z
		 M224.63,72.43V62.01h-10.42v10.42H224.63z M224.63,24.99V14.57h-10.42v10.42H224.63z"/>
	<path class="st10" d="M234.35,0.53c2.39,0,4.32,1.93,4.32,4.32v29.86c0,2.39-1.93,4.32-4.32,4.32h-29.86
		c-2.39,0-4.32-1.93-4.32-4.32V4.85c0-2.39,1.93-4.32,4.32-4.32H234.35 M208.81,30.39h21.22V9.17h-21.22V30.39 M234.35,47.97
		c2.39,0,4.32,1.93,4.32,4.32v29.86c0,2.39-1.93,4.32-4.32,4.32h-29.86c-2.39,0-4.32-1.93-4.32-4.32V52.29
		c0-2.39,1.93-4.32,4.32-4.32H234.35 M208.81,77.83h21.22V56.61h-21.22V77.83 M234.35,96.18c2.39,0,4.32,1.93,4.32,4.32v29.86
		c0,2.39-1.93,4.32-4.32,4.32h-29.86c-2.39,0-4.32-1.93-4.32-4.32V100.5c0-2.39,1.93-4.32,4.32-4.32H234.35 M208.81,126.04h21.22
		v-21.22h-21.22V126.04 M234.35-10.27h-29.86c-8.34,0-15.12,6.78-15.12,15.12v29.86c0,3.28,1.05,6.31,2.83,8.79
		c-1.78,2.48-2.83,5.52-2.83,8.79v29.86c0,3.45,1.16,6.63,3.11,9.17c-1.95,2.55-3.11,5.73-3.11,9.17v29.86
		c0,8.34,6.78,15.12,15.12,15.12h29.86c8.34,0,15.12-6.78,15.12-15.12V100.5c0-3.45-1.16-6.63-3.11-9.17
		c1.95-2.55,3.11-5.73,3.11-9.17V52.29c0-3.28-1.05-6.31-2.83-8.79c1.78-2.48,2.83-5.52,2.83-8.79V4.85
		C249.47-3.49,242.69-10.27,234.35-10.27L234.35-10.27z"/>
</g>
<g>
	<path class="st10" d="M56.17,187.92c-5.96,0-10.81-4.85-10.81-10.81c0-5.96,4.85-10.81,10.81-10.81c1.44,0,2.81,0.28,4.07,0.79
		c-0.03-0.34-0.04-0.69-0.04-1.03c0-5,2.67-9.38,6.65-11.81C52,149.95,41.12,136.22,41.12,120c0-19.66,15.98-35.66,35.63-35.66
		c0.81,0,1.63,0.03,2.44,0.08C85.94,76,96.1,71.06,107,71.06c5.71,0,11.29,1.36,16.33,3.97c5.38-2.6,11.31-3.97,17.35-3.97
		c21.97,0,39.85,17.89,39.85,39.88c0,21.99-17.88,39.88-39.85,39.88c-1.65,0-3.29-0.1-4.92-0.3c-2.3,3.15-5.1,5.89-8.36,8.17
		c-6,4.2-13.06,6.43-20.41,6.43c-8.21,0-16.1-2.83-22.38-7.91c2.01,2.4,3.22,5.49,3.22,8.86c0,7.62-6.2,13.82-13.82,13.82
		c-2.58,0-5-0.71-7.07-1.95C66.52,183.51,61.85,187.92,56.17,187.92z"/>
	<path class="st12" d="M140.68,76.46c19,0,34.45,15.47,34.45,34.48c0,19.01-15.45,34.48-34.45,34.48c-2.54,0-5.06-0.28-7.51-0.82
		c-2.2,3.81-5.21,7.1-8.87,9.67c-5.09,3.57-11.08,5.45-17.31,5.45c-8.82,0-17.09-3.82-22.8-10.38c-2.42,0.62-4.91,0.93-7.45,0.93
		c-16.67,0-30.23-13.57-30.23-30.26c0-16.68,13.56-30.26,30.23-30.26c1.67,0,3.32,0.14,4.95,0.4c5.53-8.43,15.06-13.69,25.29-13.69
		c5.77,0,11.42,1.66,16.24,4.74C128.51,78.08,134.47,76.46,140.68,76.46 M74.02,157.65c4.65,0,8.42,3.77,8.42,8.42
		s-3.77,8.42-8.42,8.42s-8.42-3.77-8.42-8.42S69.37,157.65,74.02,157.65 M56.17,171.71c2.99,0,5.41,2.42,5.41,5.41
		c0,2.99-2.42,5.41-5.41,5.41c-2.99,0-5.41-2.42-5.41-5.41C50.76,174.13,53.18,171.71,56.17,171.71 M140.68,65.66
		c-5.96,0-11.84,1.17-17.29,3.42c-5.15-2.25-10.73-3.42-16.4-3.42c-11.61,0-22.5,4.87-30.21,13.29c-0.01,0-0.02,0-0.03,0
		c-22.62,0-41.03,18.42-41.03,41.06c0,15.68,8.83,29.34,21.77,36.25c-0.86,1.45-1.54,3.01-2,4.67c-8.63,0.35-15.53,7.48-15.53,16.19
		c0,8.94,7.27,16.21,16.21,16.21c6.1,0,11.42-3.39,14.19-8.38c1.18,0.23,2.41,0.35,3.66,0.35c9.91,0,18.09-7.54,19.11-17.18
		c4.4,1.58,9.09,2.41,13.87,2.41c8.46,0,16.59-2.56,23.51-7.4c2.88-2.02,5.45-4.34,7.68-6.96c0.83,0.05,1.67,0.07,2.5,0.07
		c24.95,0,45.25-20.31,45.25-45.28C185.93,85.97,165.63,65.66,140.68,65.66L140.68,65.66z"/>
</g>
</svg>
