<?xml version="1.0" encoding="UTF-8" standalone="no"?>
<svg
   xmlns:dc="http://purl.org/dc/elements/1.1/"
   xmlns:cc="http://creativecommons.org/ns#"
   xmlns:rdf="http://www.w3.org/1999/02/22-rdf-syntax-ns#"
   xmlns:svg="http://www.w3.org/2000/svg"
   xmlns="http://www.w3.org/2000/svg"
   viewBox="0 0 826.66669 350.66666"
   height="350.66666"
   width="826.66669"
   xml:space="preserve"
   id="svg2"
   version="1.1"><metadata
     id="metadata8"><rdf:RDF><cc:Work
         rdf:about=""><dc:format>image/svg+xml</dc:format><dc:type
           rdf:resource="http://purl.org/dc/dcmitype/StillImage" /></cc:Work></rdf:RDF></metadata><defs
     id="defs6" /><g
     transform="matrix(1.3333333,0,0,-1.3333333,0,350.66667)"
     id="g10"><g
       transform="scale(0.1)"
       id="g12"><path
         id="path14"
         style="fill:#231f20;fill-opacity:1;fill-rule:nonzero;stroke:none"
         d="m 2641.36,2169.81 c -26.69,0 -48.4,-21.7 -48.4,-48.4 v -385.9 c 0,-26.69 21.71,-48.4 48.4,-48.4 h 826.42 c 26.69,0 48.4,21.71 48.4,48.4 v 385.9 c 0,26.7 -21.71,48.4 -48.4,48.4 z m 826.42,-507.76 h -826.42 c -40.5,0 -73.46,32.96 -73.46,73.46 v 385.9 c 0,40.5 32.96,73.46 73.46,73.46 h 826.42 c 40.5,0 73.46,-32.96 73.46,-73.46 v -385.9 c 0,-40.5 -32.96,-73.46 -73.46,-73.46" /><path
         id="path16"
         style="fill:#231f20;fill-opacity:1;fill-rule:nonzero;stroke:none"
         d="m 2811.43,2003.61 c -32.81,0 -51.46,-16.09 -51.46,-46 v -70.76 c 0,-29.91 18.65,-45.99 51.46,-45.99 33.13,0 51.46,16.08 51.46,45.99 v 70.76 c 0,29.91 -18.33,46 -51.46,46 z m 0,37.62 c 58.86,0 91.67,-32.16 91.67,-83.94 v -70.12 c 0,-51.78 -32.81,-83.94 -91.67,-83.94 -59.18,0 -91.99,32.16 -91.99,83.94 v 70.12 c 0,51.78 32.81,83.94 91.99,83.94" /><path
         id="path18"
         style="fill:#231f20;fill-opacity:1;fill-rule:nonzero;stroke:none"
         d="m 3021.12,1998.78 h -43.09 v -153.1 h 43.09 c 33.78,0 52.76,16.41 52.76,46.96 v 59.18 c 0,30.56 -18.98,46.96 -52.76,46.96 z m 92.96,-47.28 v -58.54 c 0,-52.42 -33.45,-84.91 -93.28,-84.91 h -72.36 c -8.05,0 -10.94,2.89 -10.94,10.93 v 206.49 c 0,8.05 2.89,10.94 10.94,10.94 h 72.36 c 59.83,0 93.28,-32.48 93.28,-84.91" /><path
         id="path20"
         style="fill:#231f20;fill-opacity:1;fill-rule:nonzero;stroke:none"
         d="m 3278.43,1961.79 c 0,23.16 -14.16,36.99 -37.64,36.99 h -52.1 v -73.65 h 52.1 c 23.48,0 37.64,13.51 37.64,36.66 z m 41.8,0 c 0,-46.63 -28.94,-74.29 -75.9,-74.29 h -55.96 v -68.52 c 0,-8.04 -2.58,-10.93 -10.94,-10.93 h -18.34 c -8.04,0 -10.93,2.89 -10.93,10.93 v 206.49 c 0,8.05 2.89,10.94 10.93,10.94 h 85.24 c 46.64,0 75.9,-27.98 75.9,-74.62" /><path
         id="path22"
         style="fill:#231f20;fill-opacity:1;fill-rule:nonzero;stroke:none"
         d="m 3388.09,1965.01 v -146.99 c 0,-7.39 -2.57,-9.97 -9.96,-9.97 h -17.38 c -7.4,0 -9.97,2.58 -9.97,9.97 v 146.99 c 0,7.4 2.57,9.65 9.97,9.65 h 17.38 c 7.39,0 9.96,-2.25 9.96,-9.65 z m 1.61,52.75 v -2.9 c 0,-14.8 -4.5,-19.62 -19.3,-19.62 h -2.26 c -14.79,0 -19.61,4.82 -19.61,19.62 v 2.9 c 0,14.79 4.82,19.29 19.61,19.29 h 2.26 c 14.8,0 19.3,-4.5 19.3,-19.29" /><path
         id="path24"
         style="fill:#231f20;fill-opacity:1;fill-rule:nonzero;stroke:none"
         d="m 2587.16,812.18 v 717.94 h 470.37 v -79.65 H 2676.48 V 1219.05 H 3050 V 1139.4 H 2676.48 V 891.828 h 381.05 V 812.18 h -470.37" /><path
         id="path26"
         style="fill:#231f20;fill-opacity:1;fill-rule:nonzero;stroke:none"
         d="m 3170.48,1170.61 c 0,223.88 164.68,371.34 369.19,371.34 128.09,0 216.36,-55.96 278.79,-133.46 l -71.05,-45.21 c -45.21,58.13 -121.63,99.02 -207.74,99.02 -157.15,0 -276.63,-119.47 -276.63,-291.69 0,-170.07 119.48,-291.688 276.63,-291.688 86.11,0 157.15,40.898 193.75,77.488 v 145.31 h -247.56 v 79.65 h 335.83 V 923.051 c -66.74,-75.352 -164.69,-124.86 -282.02,-124.86 -204.51,0 -369.19,149.618 -369.19,372.419" /><path
         id="path28"
         style="fill:#231f20;fill-opacity:1;fill-rule:nonzero;stroke:none"
         d="m 3966.92,812.18 v 717.94 h 470.37 v -79.65 h -381.04 v -231.42 h 373.51 V 1139.4 H 4056.25 V 891.828 h 381.04 V 812.18 h -470.37" /><path
         id="path30"
         style="fill:#231f20;fill-opacity:1;fill-rule:nonzero;stroke:none"
         d="m 5001.23,1313.77 c 0,81.81 -59.19,136.7 -144.22,136.7 h -188.37 v -274.48 h 188.37 c 85.03,0 144.22,57.05 144.22,137.78 z m -6.44,-501.59 -181.91,285.24 H 4668.64 V 812.18 h -89.32 v 717.94 h 288.45 c 131.31,0 226.04,-83.96 226.04,-216.35 0,-129.17 -89.35,-200.21 -187.29,-208.82 l 193.73,-292.77 h -105.46" /><path
         id="path32"
         style="fill:#231f20;fill-opacity:1;fill-rule:nonzero;stroke:none"
         d="m 5234.75,812.18 v 717.94 h 89.33 V 812.18 h -89.33" /><path
         id="path34"
         style="fill:#231f20;fill-opacity:1;fill-rule:nonzero;stroke:none"
         d="m 5762.13,1438.62 -151.76,-387.48 h 304.61 z m 242.2,-626.44 -63.51,160.379 H 5583.45 L 5519.94,812.18 h -102.25 l 289.55,717.94 h 110.87 l 288.45,-717.94 h -102.23" /><path
         id="path36"
         style="fill:#231f20;fill-opacity:1;fill-rule:nonzero;stroke:none"
         d="m 2324.42,1538.65 -447.24,666.42 c -12.15,18.09 -36.67,22.91 -54.75,10.78 -18.08,-12.14 -22.9,-36.65 -10.76,-54.74 l 432.49,-644.44 -432.49,-644.432 c -12.14,-18.09 -7.32,-42.597 10.76,-54.738 6.75,-4.531 14.4,-6.699 21.96,-6.699 12.7,0 25.17,6.129 32.79,17.469 l 447.24,666.42 c 8.93,13.29 8.93,30.67 0,43.96" /><path
         id="path38"
         style="fill:#231f20;fill-opacity:1;fill-rule:nonzero;stroke:none"
         d="m 602.117,2215.85 c -18.074,12.11 -42.597,7.33 -54.746,-10.78 L 100.137,1538.65 c -8.9339,-13.29 -8.9339,-30.67 0,-43.96 L 547.371,828.27 c 7.617,-11.34 20.078,-17.469 32.797,-17.469 7.559,0 15.203,2.168 21.949,6.699 18.098,12.141 22.91,36.648 10.766,54.738 l -432.485,644.432 432.485,644.44 c 12.144,18.09 7.332,42.6 -10.766,54.74" /><path
         id="path40"
         style="fill:#231f20;fill-opacity:1;fill-rule:nonzero;stroke:none"
         d="m 1522.53,1443.82 c -17.96,0.87 -34.03,-14.48 -34.4,-33.14 -1.05,-55.86 -15.93,-60.27 -26.79,-63.5 -26.2,-7.67 -191.87,3.81 -322.9,19.2 -0.04,0.01 -0.07,0.01 -0.11,0.02 -0.23,0.03 -0.49,0.05 -0.72,0.08 -4.33,0.51 -8.46,1.43 -12.44,2.63 -59.49,14.12 -119.35,121.72 -120.05,123 -0.03,-0.01 -0.06,-0.01 -0.09,-0.02 -12.342,-60.6 5.57,-105.56 21.36,-131.41 16.26,-20.43 37.35,-39.49 64.53,-51.02 -30.77,-109.09 -23.86,-216.21 -8.62,-297.32 12.91,-50.262 42.88,-138.871 91.09,-155.18 -52.49,96.731 -33.05,381.01 -16.03,439.15 55.81,-6.02 183.51,-18.78 263.67,-18.78 26.48,0 47.77,1.4 59.54,4.89 65.55,19.48 74.24,81.81 75.09,127 0.36,18.65 -14.47,34.05 -33.13,34.4" /><path
         id="path42"
         style="fill:#231f20;fill-opacity:1;fill-rule:nonzero;stroke:none"
         d="m 1662.3,1830.73 c -58.92,30.44 -98.55,85.25 -106.02,146.64 -2.6,21.4 -0.75,28.46 2.62,41.28 7.71,29.44 17.31,66.08 -7.46,222.12 -8.38,52.91 -28.26,104.62 -58.85,154 26.15,28.45 46.9,58.62 60.05,92.27 6.77,17.37 -1.81,36.95 -19.18,43.74 -17.46,6.79 -36.99,-1.8 -43.76,-19.17 -29.76,-76.16 -119.26,-138.47 -222.91,-210.63 C 1034.27,2139.13 715.82,1917.46 738.867,1323.53 750.93,1012.64 913.477,867.949 1044.08,751.691 1150.35,657.09 1234.31,582.359 1233.55,446.461 1232.29,212.352 1077.19,165.109 1070.8,163.27 c -18.01,-4.911 -28.61,-23.481 -23.7,-41.469 4.1,-15.031 17.7,-24.9104 32.57,-24.9104 2.93,0 5.93,0.3907 8.89,1.1992 8.62,2.3512 211,60.8082 212.54,348.0002 0.92,166.43 -102.55,258.539 -212.11,356.051 C 961.648,915.5 817.313,1043.98 806.367,1326.15 c -21.609,556.99 267.073,757.93 499.023,919.4 50.02,34.82 96.97,67.53 137.02,101.48 21.73,-37.95 36.02,-77.13 42.32,-116.84 22.54,-142.05 14.61,-172.31 8.81,-194.41 -4.16,-15.9 -8.48,-32.35 -4.33,-66.55 10.17,-83.6 63.27,-157.81 142.09,-198.52 4.46,-2.31 4.72,-3.71 4.88,-4.55 2.48,-13.54 -16.18,-45.68 -34.43,-66.02 -12.51,-13.83 -11.44,-35.19 2.39,-47.71 6.47,-5.84 14.56,-8.72 22.65,-8.72 9.21,0 18.41,3.75 25.07,11.12 10.18,11.26 60.45,70.1 50.8,123.37 -2.9,15.96 -12.25,38.01 -40.36,52.53" /><path
         id="path44"
         style="fill:#231f20;fill-opacity:1;fill-rule:nonzero;stroke:none"
         d="m 1358.39,1927.13 c 10.64,-0.94 22.17,-3.47 34.57,-7.27 1.44,-3.79 2.33,-7.85 2.33,-12.15 0,-18.85 -15.27,-34.12 -34.13,-34.12 -18.85,0 -34.12,15.27 -34.12,34.12 0,6.92 2.09,13.35 5.64,18.73 6.83,1.34 16.69,1.41 25.71,0.69 z m -4.79,-104.97 c 40.94,0 74.12,33.18 74.12,74.12 0,12.24 -3.24,23.61 -8.49,33.78 -8.12,19.04 -23.1,35.5 -42.61,46.76 -13.83,7.61 -28.23,12.48 -45.95,13.45 -18.85,0.8 -35.38,-4.51 -48.25,-10.1 -26.24,-11.77 -43.78,-25.78 -59.05,-33.46 -7.68,-4.25 -14.71,-6.67 -24.93,-7.04 -5.2,-0.64 -10.53,0.67 -16.76,1.37 -6.1,1.04 -12.08,3.28 -19.4,4.7 3.64,-13.47 10.51,-26.92 23.33,-36.69 12.21,-10.1 30.81,-15.61 47.25,-14.6 18.46,1 34.06,5.8 47.56,11.18 -0.4,-3.09 -0.95,-6.15 -0.95,-9.35 0,-40.94 33.2,-74.12 74.13,-74.12" /><path
         id="path46"
         style="fill:#231f20;fill-opacity:1;fill-rule:nonzero;stroke:none"
         d="m 1599.38,1620.81 c -21.78,6.86 -45.67,4.65 -66.67,-2.72 -4.9,-1.66 -11.35,-4.51 -14.74,-6.04 -3.48,-1.63 -7.34,-3.28 -11.22,-4.88 l -24.14,-9.64 -49.59,-19.08 -49.02,-18.86 39.59,-37.71 c 8.75,-8.33 17.84,-16.26 27.28,-23.81 4.76,-3.72 9.44,-7.54 14.45,-11.01 5,-3.63 9.05,-6.7 17.48,-11.8 15.02,-9.06 34.33,-12.4 50.52,-8.76 16.19,3.84 29.61,13.07 36.83,26.44 -14.73,2.27 -26.18,6.33 -34.52,11.33 -8.31,5.41 -13.09,10.86 -17.3,17.23 -1.2,2.54 -6.19,7.82 -10.36,12.37 -1.22,1.38 -2.57,2.64 -3.83,3.98 1.56,0.8 3.14,1.5 4.7,2.33 8.4,4.36 16.78,8.92 25.15,14.13 4.22,2.57 8.43,5.2 12.83,8.19 4.52,3 5.93,4.78 9.29,7.01 11.77,8.41 24.82,14.88 39.43,17.6 7.35,1.39 15.2,1.6 23.63,0.53 8.38,-1.22 17.01,-4.06 26.32,-7.62 -7.39,18.1 -24.25,34.21 -46.11,40.79" /></g></g></svg>